<?xml version="1.0" standalone="no"?>
<!DOCTYPE svg PUBLIC "-//W3C//DTD SVG 20010904//EN"
 "http://www.w3.org/TR/2001/REC-SVG-20010904/DTD/svg10.dtd">
<svg version="1.0" xmlns="http://www.w3.org/2000/svg"
 width="100.000000pt" height="100.000000pt" viewBox="0 0 100.000000 100.000000"
 preserveAspectRatio="xMidYMid meet">
<metadata>
Created by potrace 1.14, written by Peter Selinger 2001-2017
</metadata>
<g transform="translate(0.000000,100.000000) scale(0.100000,-0.100000)"
fill="#000000" stroke="none">
<path d="M0 500 l0 -500 500 0 500 0 0 500 0 500 -500 0 -500 0 0 -500z m584
348 c6 -55 -1 -122 -20 -193 -3 -12 3 -7 13 10 14 23 18 53 18 132 0 56 3 99
6 95 14 -16 28 -76 24 -101 -5 -22 -4 -23 4 -6 l10 20 1 -20 1 -20 9 20 c5 11
9 40 9 65 1 34 4 41 13 32 17 -17 -3 -111 -38 -187 -37 -79 -38 -84 -19 -60
28 33 65 123 73 178 l9 52 8 -58 c5 -39 4 -68 -4 -85 l-12 -27 21 25 c11 14
26 44 32 68 7 23 15 42 19 42 8 0 24 -40 21 -52 -1 -4 -4 -25 -7 -48 -3 -22
-12 -53 -21 -68 -14 -23 -11 -22 17 8 19 19 42 46 51 60 9 14 17 21 17 15 1
-5 -16 -32 -37 -59 -32 -43 -63 -68 -148 -123 -11 -7 -1 -5 21 3 52 21 123 79
148 122 12 20 23 30 25 23 2 -6 -3 -23 -12 -36 -9 -14 -14 -25 -11 -25 15 0
-20 -44 -55 -69 -22 -16 -37 -31 -34 -34 3 -3 -38 -15 -90 -27 -53 -13 -96
-26 -96 -30 0 -9 33 -22 125 -50 73 -22 156 -28 213 -16 19 5 32 4 32 -2 0
-18 -131 -23 -200 -8 -71 15 -89 13 -44 -6 16 -6 75 -12 131 -12 56 -1 99 -4
95 -7 -16 -14 -76 -28 -101 -24 -22 5 -23 4 -6 -4 l20 -10 -20 -1 -20 -1 20
-9 c11 -5 40 -9 65 -9 34 -1 41 -4 32 -13 -17 -17 -111 3 -187 38 -79 37 -84
38 -60 19 33 -28 123 -65 178 -73 l52 -9 -58 -8 c-39 -5 -68 -4 -85 4 l-27 12
25 -21 c14 -11 44 -26 68 -32 23 -7 42 -15 42 -19 0 -8 -40 -24 -52 -21 -4 1
-25 4 -48 7 -22 3 -53 13 -68 22 -26 17 -26 17 -13 -1 8 -10 35 -31 59 -48 24
-16 41 -32 38 -35 -18 -18 -134 95 -170 164 -22 45 -30 42 -11 -4 21 -50 81
-121 123 -146 20 -12 30 -23 23 -25 -6 -2 -23 3 -36 12 -14 9 -25 14 -25 11 0
-15 -44 20 -69 55 -16 22 -31 37 -34 34 -3 -3 -14 32 -25 78 l-19 83 -17 -40
c-30 -69 -48 -156 -49 -232 -1 -40 -4 -73 -8 -73 -14 0 -41 74 -46 127 -6 51
-7 54 -18 32 -7 -13 -18 -48 -25 -76 -6 -29 -15 -51 -20 -48 -13 8 -20 79 -11
132 4 29 4 50 0 47 -4 -2 -25 -32 -46 -67 -35 -58 -38 -60 -41 -34 -3 28 23
124 39 141 5 6 9 15 9 20 0 6 -27 -16 -60 -49 -55 -54 -60 -57 -60 -35 0 28
51 108 96 153 30 30 72 55 114 67 25 8 24 8 -12 24 -56 24 -126 38 -205 39
-40 1 -73 4 -73 8 0 14 74 41 127 46 51 6 54 7 32 18 -13 7 -48 18 -76 25 -29
6 -51 15 -48 20 8 13 79 20 132 11 29 -4 50 -4 47 0 -2 4 -32 25 -67 46 -60
37 -61 38 -31 41 17 2 61 -8 99 -22 l68 -25 -59 60 c-53 54 -56 59 -34 59 28
0 108 -51 154 -96 33 -33 61 -85 71 -131 3 -18 10 -35 15 -38 15 -9 74 217 65
250 -10 33 -14 95 -6 95 5 0 12 -28 15 -62z"/>
<path d="M761 802 c-3 -31 -54 -121 -94 -164 -56 -62 -47 -62 15 -1 26 26 48
43 48 37 0 -5 -6 -16 -12 -24 -11 -12 -10 -12 2 -3 8 6 23 26 33 45 l19 33
-21 -25 c-26 -32 -26 -24 0 34 11 26 18 55 16 64 -3 9 -5 11 -6 4z"/>
<path d="M691 763 c-1 -6 -4 -20 -7 -30 -5 -17 -5 -17 6 0 6 10 9 23 6 30 -3
9 -5 9 -5 0z"/>
<path d="M405 720 c47 -55 48 -56 37 -35 -6 11 -23 31 -39 45 l-28 25 30 -35z"/>
<path d="M357 679 c7 -7 15 -10 18 -7 3 3 -2 9 -12 12 -14 6 -15 5 -6 -5z"/>
<path d="M784 618 l-29 -33 33 29 c30 28 37 36 29 36 -2 0 -16 -15 -33 -32z"/>
<path d="M259 393 l-24 -28 28 24 c15 14 27 26 27 28 0 8 -8 1 -31 -24z"/>
<path d="M306 353 c-6 -14 -5 -15 5 -6 7 7 10 15 7 18 -3 3 -9 -2 -12 -12z"/>
<path d="M600 364 c0 -6 23 -32 50 -58 52 -48 120 -86 155 -85 11 0 -2 9 -30
20 -52 21 -149 90 -165 118 -5 9 -10 11 -10 5z"/>
<path d="M657 269 c12 -15 73 -53 73 -46 0 2 -19 17 -42 32 -24 16 -38 22 -31
14z"/>
<path d="M600 234 c0 -6 15 -23 33 -40 l32 -29 -30 35 c-16 19 -31 37 -32 39
-2 2 -3 0 -3 -5z"/>
</g>
</svg>
