<?xml version="1.0" standalone="no"?>
<!DOCTYPE svg PUBLIC "-//W3C//DTD SVG 20010904//EN"
 "http://www.w3.org/TR/2001/REC-SVG-20010904/DTD/svg10.dtd">
<svg version="1.0" xmlns="http://www.w3.org/2000/svg"
 width="193.000000pt" height="193.000000pt" viewBox="0 0 193.000000 193.000000"
 preserveAspectRatio="xMidYMid meet">
<metadata>
Created by potrace 1.14, written by Peter Selinger 2001-2017
</metadata>
<g transform="translate(0.000000,193.000000) scale(0.100000,-0.100000)"
fill="#000000" stroke="none">
<path d="M1061 1867 c-1 -10 -5 -15 -11 -12 -5 3 -10 0 -10 -7 0 -9 -3 -9 -10
2 -8 13 -10 12 -10 -3 0 -10 -4 -16 -9 -13 -5 3 -20 -4 -35 -15 -14 -11 -30
-17 -36 -14 -6 4 -9 1 -8 -7 2 -7 -4 -13 -12 -13 -8 0 -20 -6 -26 -14 -6 -8
-16 -11 -23 -7 -6 4 -10 4 -9 -1 2 -4 -1 -10 -7 -11 -30 -11 -45 -24 -39 -35
4 -7 4 -9 -1 -5 -4 4 -15 2 -23 -5 -13 -10 -15 -9 -8 3 4 8 0 6 -8 -4 -9 -11
-16 -16 -16 -12 0 5 -6 3 -13 -3 -8 -6 -17 -8 -21 -4 -4 4 -4 -1 0 -11 6 -16
4 -18 -13 -14 -13 3 -25 -1 -33 -12 -7 -10 -19 -16 -26 -13 -8 3 -17 -2 -20
-11 -3 -9 -10 -13 -15 -10 -5 3 -9 0 -9 -6 0 -7 -7 -9 -16 -6 -8 3 -12 2 -9
-4 3 -5 -6 -12 -20 -16 -14 -3 -25 -11 -25 -16 0 -6 -7 -8 -15 -5 -8 4 -17 1
-21 -5 -5 -7 -2 -8 6 -3 9 5 11 4 6 -3 -4 -7 -16 -12 -27 -12 -10 0 -19 -4
-19 -10 0 -5 -9 -10 -20 -10 -11 0 -23 -7 -26 -15 -4 -8 -10 -13 -14 -10 -4 3
-16 -3 -27 -13 -10 -9 -13 -13 -6 -8 10 6 12 4 7 -8 -3 -9 -10 -16 -16 -16 -5
0 -6 -5 -3 -11 10 -15 13 -69 4 -63 -4 2 -10 0 -14 -6 -3 -5 -1 -10 5 -10 6 0
10 -8 8 -17 -1 -10 1 -24 5 -30 6 -9 2 -13 -10 -13 -14 0 -15 -2 -4 -9 8 -5
15 -21 15 -34 1 -14 -2 -23 -6 -21 -3 2 -9 0 -13 -6 -3 -5 -1 -10 6 -10 8 0 8
-4 -1 -15 -10 -12 -9 -16 4 -21 15 -6 15 -8 -1 -21 -10 -8 -13 -12 -7 -9 7 3
15 -1 18 -10 3 -8 2 -12 -4 -9 -13 8 -13 -1 2 -28 10 -21 10 -21 -7 -7 -17 14
-18 14 -6 -7 8 -16 8 -23 1 -23 -6 0 -4 -7 4 -16 20 -19 20 -19 0 -38 -9 -9
-11 -16 -4 -16 6 0 8 -5 3 -12 -11 -19 -12 -37 -2 -44 14 -8 11 -26 -3 -18
-10 6 -10 4 0 -7 14 -16 16 -33 2 -24 -5 3 -10 1 -10 -4 0 -6 5 -11 11 -11 8
0 7 -6 -2 -17 -10 -11 -10 -14 -1 -9 6 4 12 2 12 -3 0 -6 -5 -11 -11 -11 -8 0
-8 -5 1 -15 9 -10 9 -15 1 -15 -15 0 -10 -22 9 -38 8 -8 10 -11 3 -8 -6 4 -14
2 -18 -4 -3 -5 -2 -10 3 -10 10 0 9 -36 -1 -46 -4 -4 -1 -14 6 -22 10 -13 9
-14 -3 -7 -11 6 -10 3 3 -12 9 -11 14 -23 10 -28 -5 -4 -1 -6 8 -3 9 4 20 -2
27 -13 7 -10 17 -19 24 -19 7 0 3 7 -8 15 -10 8 -15 15 -11 15 4 0 20 -12 34
-27 15 -16 23 -21 18 -13 -4 8 5 3 22 -12 16 -16 37 -28 46 -28 9 0 17 -5 17
-11 0 -5 5 -7 10 -4 6 3 10 1 10 -4 0 -6 7 -11 16 -11 8 0 13 -4 10 -9 -4 -5
2 -8 11 -7 19 3 43 -15 36 -26 -2 -4 3 -5 11 -2 9 3 16 1 16 -6 0 -6 5 -8 10
-5 6 3 10 1 10 -5 0 -6 4 -8 10 -5 6 3 10 1 10 -4 0 -6 9 -11 20 -11 11 0 20
-7 20 -16 0 -8 4 -12 10 -9 5 3 10 1 10 -6 0 -7 3 -9 7 -6 3 4 12 -1 20 -11 8
-9 12 -12 9 -6 -3 7 1 14 9 17 10 4 12 1 8 -10 -4 -10 -2 -14 4 -10 10 6 11
78 3 112 -6 27 1 56 13 50 6 -4 3 1 -7 9 -11 9 -15 16 -10 16 6 0 9 19 8 45
-2 33 0 44 9 39 7 -4 4 2 -6 13 -13 14 -15 23 -7 28 8 5 8 10 0 20 -8 10 -8
15 1 21 8 5 9 3 4 -6 -5 -8 -4 -11 3 -6 13 8 5 36 -11 36 -6 0 -2 7 9 16 10 8
13 13 7 9 -7 -3 -13 0 -13 7 0 8 6 20 13 27 10 12 9 13 -7 7 -14 -5 -16 -3 -9
6 5 7 9 29 8 48 0 35 13 62 28 53 4 -2 7 0 7 6 0 5 10 13 23 17 12 4 25 11 28
16 5 8 25 15 52 17 5 1 6 5 3 10 -6 9 45 34 72 35 7 1 17 8 22 16 5 8 10 11
10 7 0 -4 6 -2 14 5 10 9 11 15 2 20 -7 5 -7 8 0 8 12 0 12 29 -1 49 -5 9 -4
12 2 8 14 -9 14 46 -1 55 -7 5 -6 8 4 8 8 0 2 9 -15 20 -16 11 -24 20 -17 20
7 0 10 5 7 10 -4 6 -1 17 5 25 8 10 9 15 2 15 -12 0 -11 48 1 68 5 6 4 12 -2
12 -10 0 -7 37 4 48 2 3 0 11 -6 19 -9 10 -8 13 1 13 10 0 10 3 0 15 -6 8 -8
20 -4 27 10 17 12 78 2 84 -5 3 -3 14 2 25 6 10 7 19 2 19 -5 0 -9 7 -9 15 0
8 5 15 10 15 5 0 4 6 -2 14 -9 10 -9 16 -1 21 8 5 8 11 -1 21 -9 11 -8 14 2
14 12 0 12 2 0 9 -9 6 -10 11 -2 15 6 4 11 12 11 17 0 6 -4 7 -10 4 -5 -3 -8
0 -5 7 9 25 12 87 4 83 -4 -3 -10 1 -12 7 -3 8 -6 6 -6 -5z m-536 -1305 c-3
-3 -11 0 -18 7 -9 10 -8 11 6 5 10 -3 15 -9 12 -12z"/>
<path d="M1184 1564 c3 -8 0 -16 -6 -20 -7 -5 -5 -12 7 -21 18 -13 18 -13 -1
-14 -10 0 -13 -3 -6 -6 6 -2 12 -9 12 -14 0 -6 -6 -7 -12 -3 -10 6 -10 4 0 -8
9 -12 10 -18 2 -23 -6 -4 -7 -12 -3 -18 11 -15 10 -38 -1 -56 -6 -10 -5 -12 2
-7 13 8 17 -6 5 -18 -11 -10 -11 -46 0 -46 5 0 4 -7 -3 -15 -8 -9 -8 -15 -2
-15 12 0 10 -38 -2 -58 -4 -7 -2 -12 5 -12 8 0 8 -4 -1 -15 -9 -11 -9 -15 -1
-15 9 0 9 -5 1 -20 -8 -14 -8 -20 0 -20 8 0 8 -6 0 -20 -6 -12 -7 -20 -1 -20
11 0 9 -19 -3 -38 -4 -7 -5 -16 -2 -19 8 -9 -26 -32 -47 -33 -11 0 -15 -4 -11
-12 4 -6 3 -8 -4 -4 -6 3 -18 -1 -26 -10 -9 -8 -16 -13 -16 -9 0 3 -10 -1 -23
-10 -13 -8 -27 -12 -32 -8 -4 5 -5 2 -1 -4 6 -12 -5 -18 -26 -14 -5 0 -8 -6
-8 -14 0 -8 -5 -15 -11 -15 -5 0 -7 6 -4 13 4 6 0 4 -8 -5 -8 -10 -17 -15 -20
-11 -4 3 -7 -2 -7 -13 0 -16 -2 -17 -10 -4 -10 16 -14 8 -11 -22 1 -10 -4 -18
-11 -18 -10 0 -10 -2 1 -9 13 -8 13 -12 0 -27 -8 -10 -9 -15 -2 -11 12 8 13
-39 0 -59 -4 -7 2 -10 18 -6 24 4 25 2 21 -36 -2 -25 1 -43 8 -46 7 -3 6 -8
-4 -16 -11 -9 -12 -13 -3 -17 9 -3 10 -10 4 -21 -5 -9 -5 -26 -1 -37 4 -11 3
-28 -2 -39 -7 -13 -6 -21 3 -27 11 -7 11 -9 -1 -9 -13 0 -13 -1 0 -10 13 -9
13 -10 0 -10 -13 0 -13 -1 0 -10 8 -5 10 -10 4 -10 -6 0 -11 -7 -11 -15 0 -8
3 -15 7 -15 4 0 7 -7 7 -15 0 -8 -4 -12 -9 -9 -4 3 -8 1 -8 -5 0 -5 5 -13 10
-16 7 -4 7 -13 0 -26 -8 -14 -7 -19 2 -19 10 0 10 -2 0 -9 -15 -9 -15 -17 0
-45 7 -13 7 -16 -1 -12 -6 4 -11 1 -11 -8 0 -8 5 -18 10 -21 6 -4 8 -11 4 -16
-3 -5 -7 -21 -10 -35 -3 -18 -1 -23 7 -18 8 5 9 3 3 -7 -13 -22 -12 -58 3 -63
7 -3 13 -1 13 4 0 6 3 9 8 9 19 -3 33 2 28 10 -3 5 1 12 10 15 8 3 12 2 9 -4
-3 -6 1 -7 9 -4 9 3 14 10 11 14 -6 9 23 22 35 15 4 -3 11 2 14 11 4 9 13 14
21 10 8 -3 14 0 12 6 -1 7 7 14 17 16 11 2 26 10 34 18 7 8 20 14 28 14 8 0
14 5 14 11 0 6 7 8 16 5 10 -4 13 -2 8 6 -5 8 -2 9 10 5 10 -4 15 -3 11 3 -3
5 4 14 15 20 11 6 20 7 20 3 0 -4 10 3 21 17 11 14 18 20 15 13 -5 -8 0 -8 19
0 14 7 25 15 25 20 0 4 5 7 11 7 6 0 31 14 56 32 25 17 42 25 38 17 -5 -8 4
-3 18 10 15 14 27 20 27 15 0 -5 5 -1 11 10 9 15 13 16 20 5 7 -11 9 -11 9 3
0 9 5 20 12 24 7 5 9 2 4 -7 -4 -8 2 -3 13 10 13 14 21 18 21 10 0 -11 2 -11
10 1 5 8 10 11 10 5 0 -5 4 -3 10 5 6 9 5 20 -3 29 -9 12 -9 13 1 7 7 -4 12
-2 12 4 0 6 5 8 12 4 7 -4 8 -3 4 5 -4 6 -12 9 -17 6 -5 -4 -4 6 2 22 12 31
12 33 -3 50 -8 10 -6 13 8 13 18 1 18 1 2 11 -10 5 -18 15 -18 20 0 6 6 7 13
3 9 -6 9 -4 -1 8 -11 14 -10 18 5 27 16 9 15 11 -7 12 -16 1 -19 3 -8 6 14 3
15 9 7 31 -7 18 -7 28 0 30 6 2 11 8 11 13 0 6 -4 8 -8 5 -4 -2 -8 4 -8 15 0
11 5 18 13 15 7 -3 10 1 6 9 -3 8 -10 12 -17 8 -6 -3 -6 -1 2 8 14 15 17 33 4
25 -5 -3 -9 1 -9 9 0 8 4 12 9 9 4 -3 8 2 8 11 0 9 -4 14 -9 11 -4 -3 -6 6 -3
19 2 15 9 22 16 18 6 -3 6 0 -1 8 -7 7 -13 28 -13 47 0 24 4 31 13 26 6 -4 3
3 -8 16 l-20 23 20 -7 c15 -6 17 -4 8 5 -8 8 -9 19 -2 36 6 16 6 22 -1 18 -6
-4 -9 3 -6 17 2 13 -1 32 -7 43 -9 17 -8 18 4 8 11 -9 14 -7 14 12 0 13 -3 21
-8 18 -9 -5 -4 34 6 43 4 4 3 12 -2 18 -9 11 -11 17 -11 36 0 6 -7 10 -16 10
-8 0 -12 5 -9 10 5 9 -23 15 -48 11 -4 0 -6 2 -6 6 1 5 1 15 0 23 -1 13 -2 13
-11 0 -8 -13 -10 -12 -10 3 0 9 -5 17 -11 17 -5 0 -7 -6 -4 -12 4 -7 0 -5 -8
5 -8 9 -20 17 -28 17 -16 1 -58 30 -43 30 5 0 1 5 -9 11 -9 5 -21 8 -26 5 -5
-3 -12 1 -15 10 -4 9 -13 14 -21 10 -9 -3 -15 0 -15 10 0 8 -4 12 -10 9 -5 -3
-10 -1 -10 5 0 6 -4 9 -9 6 -5 -3 -12 1 -15 10 -3 8 -10 13 -15 10 -13 -8 -42
4 -35 15 3 5 0 9 -6 9 -6 0 -18 7 -27 15 -8 8 -19 13 -24 10 -5 -4 -9 -2 -9 3
0 5 -7 9 -15 9 -9 0 -14 -6 -11 -13z"/>
</g>
</svg>
