<?xml version="1.0" standalone="no"?>
<!DOCTYPE svg PUBLIC "-//W3C//DTD SVG 20010904//EN"
 "http://www.w3.org/TR/2001/REC-SVG-20010904/DTD/svg10.dtd">
<svg version="1.0" xmlns="http://www.w3.org/2000/svg"
 width="260.000000pt" height="260.000000pt" viewBox="0 0 260.000000 260.000000"
 preserveAspectRatio="xMidYMid meet">
<metadata>
Created by potrace 1.14, written by Peter Selinger 2001-2017
</metadata>
<g transform="translate(0.000000,260.000000) scale(0.100000,-0.100000)"
fill="#000000" stroke="none">
<path d="M1223 2585 c-7 -8 -30 -17 -50 -20 -73 -12 -142 -64 -192 -145 -25
-41 -36 -50 -68 -55 -87 -13 -116 -27 -164 -76 -26 -27 -50 -62 -54 -79 -7
-31 -38 -60 -65 -60 -29 0 -132 -62 -172 -104 -22 -22 -48 -57 -58 -77 -26
-49 -69 -99 -86 -99 -31 0 -112 -53 -165 -107 -63 -66 -95 -117 -116 -185 -7
-27 -18 -48 -23 -48 -6 0 -10 -44 -10 -105 0 -92 3 -108 20 -125 11 -11 20
-27 20 -36 0 -29 59 -120 106 -165 81 -77 92 -91 98 -124 7 -37 105 -150 139
-161 12 -3 30 -14 41 -23 14 -12 39 -16 105 -16 74 1 93 4 137 28 63 33 90 34
105 5 7 -13 27 -41 46 -64 18 -23 33 -46 33 -51 0 -6 7 -16 15 -23 37 -30 140
-287 151 -373 4 -29 13 -77 20 -107 8 -30 14 -72 14 -93 0 -30 7 -44 32 -68
l32 -29 226 0 c218 1 226 1 253 23 29 24 58 112 71 211 3 27 12 59 20 71 7 11
17 39 21 62 3 23 13 47 20 53 8 6 17 24 20 40 3 16 13 34 21 41 8 6 14 17 14
24 0 16 116 161 135 169 18 7 41 -1 77 -27 22 -16 43 -20 120 -19 84 0 98 3
134 26 92 60 141 132 150 221 7 63 8 65 58 103 35 27 60 57 79 95 30 60 29 70
-4 154 -12 29 -11 35 9 62 12 17 22 37 22 46 0 8 9 24 20 35 17 17 20 33 20
100 0 44 -4 80 -9 80 -5 0 -14 15 -21 33 -35 88 -142 177 -223 185 -42 4 -52
9 -72 41 -49 73 -96 109 -158 119 -31 6 -43 13 -45 27 -8 49 -47 162 -64 181
-10 11 -18 25 -18 30 0 18 -87 102 -131 126 -23 13 -51 29 -63 35 -11 7 -31
13 -43 13 -12 0 -34 5 -50 11 -15 7 -57 14 -93 18 -61 6 -66 8 -95 47 -39 52
-131 124 -160 124 -30 0 -85 20 -85 31 0 14 -34 10 -47 -6z m118 -132 c38 -19
89 -72 89 -92 0 -25 41 -91 58 -92 9 -1 62 -2 117 -2 87 -2 107 -6 158 -30 55
-27 137 -98 137 -119 0 -5 9 -21 19 -34 13 -17 21 -49 26 -107 5 -62 13 -91
31 -119 24 -38 25 -38 90 -37 36 1 70 -3 74 -7 5 -5 20 -32 34 -60 28 -56 40
-64 91 -64 52 0 136 -43 173 -88 30 -38 32 -46 32 -118 0 -74 -1 -77 -40 -124
-45 -54 -51 -88 -20 -127 20 -26 27 -88 12 -109 -4 -5 -23 -16 -42 -24 -101
-40 -124 -71 -100 -135 20 -52 -37 -185 -79 -185 -7 0 -26 -7 -43 -16 -27 -14
-37 -14 -70 -3 -43 14 -50 35 -15 48 56 22 61 74 10 104 -30 17 -34 17 -55 3
-12 -9 -29 -16 -37 -16 -33 0 -270 -228 -297 -285 -14 -31 -26 -51 -56 -97
-10 -15 -18 -35 -18 -45 0 -10 -7 -31 -16 -48 -19 -36 -52 -150 -64 -224 -5
-30 -15 -58 -22 -62 -16 -10 -302 -10 -338 0 -23 6 -25 13 -32 91 -5 47 -14
101 -22 120 -8 19 -18 53 -21 75 -4 22 -12 49 -19 60 -8 11 -17 36 -21 55 -4
19 -15 46 -24 60 -30 45 -41 64 -57 103 -9 20 -20 37 -24 37 -5 0 -12 10 -16
23 -12 39 -102 141 -242 272 -57 54 -78 68 -103 68 -32 0 -68 -33 -69 -62 0
-7 26 -37 57 -67 71 -67 65 -77 -47 -77 -74 0 -85 3 -122 30 -32 23 -48 45
-68 96 -31 77 -49 100 -107 134 -24 14 -43 29 -43 33 0 5 -6 15 -14 22 -8 8
-26 38 -40 66 -23 45 -26 63 -26 153 0 91 3 108 27 156 37 72 112 147 180 178
31 14 61 25 68 25 19 0 82 76 90 108 14 58 94 124 173 144 83 20 111 36 118
66 4 15 15 48 26 73 25 59 74 85 144 75 57 -7 98 17 108 65 9 44 58 103 113
133 55 30 113 30 174 -1z"/>
<path d="M1159 1559 c-20 -29 -22 -42 -20 -135 2 -99 1 -105 -23 -129 -14 -14
-36 -25 -50 -25 -13 0 -46 -17 -73 -38 -66 -52 -78 -55 -110 -28 -16 13 -52
40 -82 60 -60 42 -94 43 -113 1 -19 -42 -2 -69 83 -136 73 -57 239 -245 239
-270 0 -5 18 -35 40 -66 22 -32 40 -62 40 -66 0 -10 38 -64 69 -100 28 -31 71
-36 96 -11 14 14 15 66 13 485 -3 512 0 489 -60 489 -19 0 -33 -9 -49 -31z
m-14 -519 c0 -118 -1 -125 -20 -125 -11 0 -24 9 -30 20 -5 12 -24 39 -41 60
-55 71 -57 80 -28 114 14 17 32 31 39 31 7 0 18 7 25 15 7 9 23 15 34 13 20
-3 21 -9 21 -128z"/>
<path d="M1397 1395 l-27 -26 0 -445 c0 -270 4 -452 10 -464 5 -10 21 -21 36
-24 35 -9 72 16 91 62 8 20 21 44 28 52 7 8 16 29 20 47 3 17 13 37 21 44 8 6
14 16 14 21 0 5 18 31 40 57 22 26 40 52 40 57 0 13 92 100 173 163 77 61 91
81 82 122 -12 52 -71 62 -111 18 -26 -28 -49 -23 -96 22 -59 56 -95 76 -151
84 -57 9 -67 26 -67 111 0 44 -5 62 -26 90 -32 41 -41 42 -77 9z m158 -325 c3
-5 14 -10 25 -10 31 0 90 -60 90 -91 0 -16 -6 -32 -14 -36 -8 -4 -38 -37 -66
-73 -27 -36 -55 -70 -60 -77 -6 -7 -17 -10 -25 -7 -12 5 -15 31 -15 148 0 79
3 146 7 149 10 11 51 8 58 -3z"/>
</g>
</svg>
