<?xml version="1.0" standalone="no"?>
<!DOCTYPE svg PUBLIC "-//W3C//DTD SVG 20010904//EN"
 "http://www.w3.org/TR/2001/REC-SVG-20010904/DTD/svg10.dtd">
<svg version="1.0" xmlns="http://www.w3.org/2000/svg"
 width="480.000000pt" height="480.000000pt" viewBox="0 0 480.000000 480.000000"
 preserveAspectRatio="xMidYMid meet">
<metadata>
Created by potrace 1.14, written by Peter Selinger 2001-2017
</metadata>
<g transform="translate(0.000000,480.000000) scale(0.100000,-0.100000)"
fill="#000000" stroke="none">
<path d="M2298 3965 c-2 -1 -34 -6 -73 -9 -97 -10 -256 -49 -369 -91 -364
-136 -668 -412 -847 -766 -41 -83 -113 -285 -124 -349 -3 -19 -8 -42 -10 -50
-22 -73 -35 -388 -20 -460 3 -14 7 -47 10 -75 3 -27 8 -58 11 -67 3 -9 6 -25
8 -35 26 -130 113 -348 189 -468 192 -305 458 -524 786 -650 692 -264 1486 8
1880 643 120 193 203 432 226 652 6 64 6 251 0 330 -23 265 -146 566 -326 802
-62 80 -234 243 -327 308 -188 132 -459 244 -642 266 -25 3 -56 7 -70 10 -27
6 -297 14 -302 9z"/>
</g>
</svg>
